<svg width="107" height="58" viewBox="0 0 107 58" fill="none" xmlns="http://www.w3.org/2000/svg">
<path d="M12.5 51.88C12.5 52.6533 12.3467 53.3067 12.04 53.84C11.7333 54.36 11.3267 54.78 10.82 55.1C10.3133 55.42 9.73333 55.6533 9.08 55.8C8.44 55.9333 7.78 56 7.1 56H1.46V41.84H7.1C7.64667 41.84 8.20667 41.9 8.78 42.02C9.35333 42.1267 9.87333 42.32 10.34 42.6C10.8067 42.8667 11.1867 43.2333 11.48 43.7C11.7733 44.1667 11.92 44.76 11.92 45.48C11.92 46.2667 11.7067 46.92 11.28 47.44C10.8533 47.9467 10.2933 48.3133 9.6 48.54V48.58C10 48.6467 10.3733 48.7733 10.72 48.96C11.08 49.1333 11.3867 49.36 11.64 49.64C11.9067 49.92 12.1133 50.2467 12.26 50.62C12.42 50.9933 12.5 51.4133 12.5 51.88ZM8.62 45.94C8.62 45.46 8.43333 45.1133 8.06 44.9C7.7 44.6733 7.16 44.56 6.44 44.56H4.76V47.48H6.6C7.24 47.48 7.73333 47.3533 8.08 47.1C8.44 46.8333 8.62 46.4467 8.62 45.94ZM9.08 51.56C9.08 50.9733 8.86 50.5667 8.42 50.34C7.98 50.1133 7.39333 50 6.66 50H4.76V53.24H6.68C6.94667 53.24 7.22 53.22 7.5 53.18C7.79333 53.1267 8.05333 53.04 8.28 52.92C8.52 52.8 8.71333 52.6333 8.86 52.42C9.00667 52.1933 9.08 51.9067 9.08 51.56ZM21.0408 48.72C20.8941 48.68 20.7474 48.6533 20.6008 48.64C20.4674 48.6267 20.3341 48.62 20.2008 48.62C19.7608 48.62 19.3874 48.7 19.0808 48.86C18.7874 49.02 18.5474 49.2133 18.3608 49.44C18.1874 49.6667 18.0608 49.9133 17.9808 50.18C17.9008 50.4467 17.8608 50.68 17.8608 50.88V56H14.5808V46.04H17.7408V47.48H17.7808C18.0341 46.9733 18.3941 46.56 18.8608 46.24C19.3274 45.92 19.8674 45.76 20.4808 45.76C20.6141 45.76 20.7408 45.7667 20.8608 45.78C20.9941 45.7933 21.1008 45.8133 21.1808 45.84L21.0408 48.72ZM29.0705 56V54.62H29.0305C28.9105 54.8467 28.7505 55.06 28.5505 55.26C28.3638 55.46 28.1371 55.6333 27.8705 55.78C27.6171 55.9267 27.3305 56.0467 27.0105 56.14C26.7038 56.2333 26.3771 56.28 26.0305 56.28C25.3638 56.28 24.7971 56.16 24.3305 55.92C23.8771 55.68 23.5038 55.3733 23.2105 55C22.9305 54.6133 22.7238 54.18 22.5905 53.7C22.4705 53.2067 22.4105 52.7067 22.4105 52.2V46.04H25.7105V51.44C25.7105 51.72 25.7305 51.9867 25.7705 52.24C25.8105 52.4933 25.8838 52.72 25.9905 52.92C26.1105 53.12 26.2638 53.28 26.4505 53.4C26.6371 53.5067 26.8838 53.56 27.1905 53.56C27.7638 53.56 28.1971 53.3467 28.4905 52.92C28.7971 52.4933 28.9505 51.9933 28.9505 51.42V46.04H32.2305V56H29.0705ZM38.3556 42.86C38.3556 43.1133 38.3023 43.3533 38.1956 43.58C38.1023 43.7933 37.969 43.98 37.7956 44.14C37.6356 44.3 37.4356 44.4267 37.1956 44.52C36.969 44.6133 36.729 44.66 36.4756 44.66C35.9423 44.66 35.4956 44.4867 35.1356 44.14C34.7756 43.78 34.5956 43.3533 34.5956 42.86C34.5956 42.62 34.6423 42.3933 34.7356 42.18C34.829 41.9533 34.9623 41.76 35.1356 41.6C35.309 41.44 35.509 41.3133 35.7356 41.22C35.9623 41.1133 36.209 41.06 36.4756 41.06C36.729 41.06 36.969 41.1067 37.1956 41.2C37.4356 41.2933 37.6356 41.42 37.7956 41.58C37.969 41.74 38.1023 41.9333 38.1956 42.16C38.3023 42.3733 38.3556 42.6067 38.3556 42.86ZM34.8356 56V46.04H38.1156V56H34.8356ZM47.2536 56V50.56C47.2536 50.28 47.2269 50.0133 47.1736 49.76C47.1336 49.5067 47.0603 49.2867 46.9536 49.1C46.8469 48.9 46.6936 48.7467 46.4936 48.64C46.3069 48.52 46.0669 48.46 45.7736 48.46C45.4803 48.46 45.2203 48.52 44.9936 48.64C44.7803 48.7467 44.6003 48.9 44.4536 49.1C44.3069 49.3 44.1936 49.5333 44.1136 49.8C44.0469 50.0533 44.0136 50.32 44.0136 50.6V56H40.7136V46.04H43.8936V47.42H43.9336C44.0536 47.2067 44.2069 47 44.3936 46.8C44.5936 46.5867 44.8203 46.4067 45.0736 46.26C45.3403 46.1133 45.6269 45.9933 45.9336 45.9C46.2403 45.8067 46.5669 45.76 46.9136 45.76C47.5803 45.76 48.1469 45.88 48.6136 46.12C49.0803 46.36 49.4536 46.6733 49.7336 47.06C50.0269 47.4333 50.2336 47.8667 50.3536 48.36C50.4869 48.8533 50.5536 49.3467 50.5536 49.84V56H47.2536ZM59.2778 44.76V56H55.8578V44.76H51.8578V41.84H63.2778V44.76H59.2778ZM69.322 48.72C69.1754 48.68 69.0287 48.6533 68.882 48.64C68.7487 48.6267 68.6154 48.62 68.482 48.62C68.042 48.62 67.6687 48.7 67.362 48.86C67.0687 49.02 66.8287 49.2133 66.642 49.44C66.4687 49.6667 66.342 49.9133 66.262 50.18C66.182 50.4467 66.142 50.68 66.142 50.88V56H62.862V46.04H66.022V47.48H66.062C66.3154 46.9733 66.6754 46.56 67.142 46.24C67.6087 45.92 68.1487 45.76 68.762 45.76C68.8954 45.76 69.022 45.7667 69.142 45.78C69.2754 45.7933 69.382 45.8133 69.462 45.84L69.322 48.72ZM76.3592 51.66H75.9392C75.5792 51.66 75.2126 51.68 74.8392 51.72C74.4792 51.7467 74.1526 51.8067 73.8592 51.9C73.5792 51.9933 73.3459 52.1333 73.1592 52.32C72.9726 52.4933 72.8792 52.7267 72.8792 53.02C72.8792 53.2067 72.9192 53.3667 72.9992 53.5C73.0926 53.6333 73.2059 53.74 73.3392 53.82C73.4726 53.9 73.6259 53.96 73.7992 54C73.9726 54.0267 74.1392 54.04 74.2992 54.04C74.9659 54.04 75.4726 53.86 75.8192 53.5C76.1792 53.1267 76.3592 52.6267 76.3592 52V51.66ZM70.3392 47.4C70.9259 46.84 71.6059 46.42 72.3792 46.14C73.1659 45.86 73.9659 45.72 74.7792 45.72C75.6192 45.72 76.3259 45.8267 76.8992 46.04C77.4859 46.24 77.9592 46.56 78.3192 47C78.6792 47.4267 78.9392 47.9733 79.0992 48.64C79.2726 49.2933 79.3592 50.0733 79.3592 50.98V56H76.3592V54.94H76.2992C76.0459 55.3533 75.6592 55.6733 75.1392 55.9C74.6326 56.1267 74.0792 56.24 73.4792 56.24C73.0792 56.24 72.6659 56.1867 72.2392 56.08C71.8126 55.9733 71.4192 55.8 71.0592 55.56C70.7126 55.32 70.4259 55 70.1992 54.6C69.9726 54.2 69.8592 53.7067 69.8592 53.12C69.8592 52.4 70.0526 51.82 70.4392 51.38C70.8392 50.94 71.3459 50.6 71.9592 50.36C72.5859 50.12 73.2792 49.96 74.0392 49.88C74.7992 49.8 75.5392 49.76 76.2592 49.76V49.6C76.2592 49.1067 76.0859 48.7467 75.7392 48.52C75.3926 48.28 74.9659 48.16 74.4592 48.16C73.9926 48.16 73.5392 48.26 73.0992 48.46C72.6726 48.66 72.3059 48.9 71.9992 49.18L70.3392 47.4ZM89.3473 56V54.7H89.3073C88.9873 55.2067 88.5273 55.6 87.9273 55.88C87.3407 56.1467 86.714 56.28 86.0473 56.28C85.3007 56.28 84.634 56.1333 84.0473 55.84C83.4607 55.5467 82.9607 55.16 82.5473 54.68C82.1473 54.1867 81.8407 53.62 81.6273 52.98C81.414 52.34 81.3073 51.6733 81.3073 50.98C81.3073 50.2867 81.414 49.6267 81.6273 49C81.854 48.36 82.1673 47.8 82.5673 47.32C82.9807 46.84 83.474 46.46 84.0473 46.18C84.634 45.9 85.2873 45.76 86.0073 45.76C86.7407 45.76 87.3607 45.9 87.8673 46.18C88.374 46.46 88.7673 46.7667 89.0473 47.1H89.0873V40.88H92.3673V56H89.3473ZM89.2273 51C89.2273 50.68 89.1673 50.3667 89.0473 50.06C88.9407 49.7533 88.7807 49.48 88.5673 49.24C88.3673 49 88.1207 48.8067 87.8273 48.66C87.534 48.5133 87.2007 48.44 86.8273 48.44C86.4407 48.44 86.1007 48.5133 85.8073 48.66C85.514 48.8067 85.2673 49 85.0673 49.24C84.8673 49.4667 84.714 49.7333 84.6073 50.04C84.514 50.3467 84.4673 50.66 84.4673 50.98C84.4673 51.3 84.514 51.62 84.6073 51.94C84.714 52.2467 84.8673 52.52 85.0673 52.76C85.2673 53 85.514 53.1933 85.8073 53.34C86.1007 53.4867 86.4407 53.56 86.8273 53.56C87.2007 53.56 87.534 53.4867 87.8273 53.34C88.1207 53.1933 88.3673 53 88.5673 52.76C88.7807 52.52 88.9407 52.2467 89.0473 51.94C89.1673 51.6333 89.2273 51.32 89.2273 51ZM101.831 49.88C101.831 49.36 101.665 48.9133 101.331 48.54C101.011 48.1667 100.525 47.98 99.8714 47.98C99.5514 47.98 99.2581 48.0333 98.9914 48.14C98.7247 48.2333 98.4914 48.3667 98.2914 48.54C98.0914 48.7133 97.9314 48.92 97.8114 49.16C97.6914 49.3867 97.6247 49.6267 97.6114 49.88H101.831ZM104.851 51.14C104.851 51.2733 104.851 51.4067 104.851 51.54C104.851 51.6733 104.845 51.8 104.831 51.92H97.6114C97.6381 52.2 97.7181 52.4533 97.8514 52.68C97.9981 52.9067 98.1781 53.1067 98.3914 53.28C98.6181 53.44 98.8647 53.5667 99.1314 53.66C99.4114 53.7533 99.6981 53.8 99.9914 53.8C100.511 53.8 100.951 53.7067 101.311 53.52C101.671 53.32 101.965 53.0667 102.191 52.76L104.471 54.2C104.005 54.88 103.385 55.4067 102.611 55.78C101.851 56.14 100.965 56.32 99.9514 56.32C99.2047 56.32 98.4981 56.2067 97.8314 55.98C97.1647 55.74 96.5781 55.4 96.0714 54.96C95.5781 54.5067 95.1847 53.9533 94.8914 53.3C94.6114 52.6467 94.4714 51.9 94.4714 51.06C94.4714 50.2467 94.6114 49.5133 94.8914 48.86C95.1714 48.1933 95.5514 47.6333 96.0314 47.18C96.5114 46.7133 97.0781 46.3533 97.7314 46.1C98.3847 45.8467 99.0914 45.72 99.8514 45.72C100.585 45.72 101.258 45.8467 101.871 46.1C102.485 46.34 103.011 46.6933 103.451 47.16C103.891 47.6267 104.231 48.1933 104.471 48.86C104.725 49.5267 104.851 50.2867 104.851 51.14Z" fill="url(#paint0_linear_15_132)"/>
<path d="M83.9942 25.4697C81.3642 26.2028 78.4278 30.2272 75.5328 35H22.2106C21.553 34.8668 22.2252 33.1708 27.2771 29.0008C32.3289 24.8309 43.4153 14.7341 44.4077 13.5914C45.4002 12.4486 49.4968 10.0458 51.3064 10.0458C53.1145 10.0458 54.6201 9.52163 56.1871 8.97613L56.1908 8.97485C57.7591 8.42889 65.5838 5.67588 65.5838 5.67588C66.7719 5.38467 68.469 0.585895 68.5896 0.176799C68.7102 -0.232298 70.482 0.0917006 70.8439 0.909894C71.2058 1.72809 73.8497 5.67588 73.8497 5.67588C73.8497 5.67588 78.1033 8.29302 77.9827 8.97485C78.5456 11.1567 78.0103 11.4643 78.7341 13.3735C79.4579 15.2826 87 14.8389 87 16.3059C87 17.7729 86.6243 24.7366 83.9942 25.4697Z" fill="url(#paint1_linear_15_132)"/>
<defs>
<linearGradient id="paint0_linear_15_132" x1="53.5" y1="36" x2="53.5" y2="58" gradientUnits="userSpaceOnUse">
<stop stop-color="#C4C4C4" stop-opacity="0"/>
<stop offset="1" stop-color="#38BDF8"/>
</linearGradient>
<linearGradient id="paint1_linear_15_132" x1="54.5" y1="0" x2="54.5" y2="35" gradientUnits="userSpaceOnUse">
<stop stop-color="#0EA5E9"/>
<stop offset="1" stop-color="#C4C4C4" stop-opacity="0"/>
</linearGradient>
</defs>
</svg>
